<svg width="120" height="120" viewBox="0 0 120 120" fill="none" xmlns="http://www.w3.org/2000/svg">
<path d="M60 0C26.9147 0 0 26.9147 0 60C0 93.0853 26.9147 120 60 120C93.0853 120 120 93.0853 120 60C120 26.9147 93.0853 0 60 0ZM86.25 64.9997H64.9997V86.25C64.9997 89.0103 62.7603 91.2497 60 91.2497C57.2397 91.2497 55.0003 89.0103 55.0003 86.25V64.9997H33.75C30.9897 64.9997 28.7503 62.7603 28.7503 60C28.7503 57.2397 30.9897 55.0003 33.75 55.0003H55.0003V33.75C55.0003 30.9897 57.2397 28.7503 60 28.7503C62.7603 28.7503 64.9997 30.9897 64.9997 33.75V55.0003H86.25C89.0103 55.0003 91.2497 57.2397 91.2497 60C91.2497 62.7603 89.0103 64.9997 86.25 64.9997V64.9997Z" fill="#4AD991"/>
</svg>
