<svg width="57" height="56" viewBox="0 0 57 56" fill="none" xmlns="http://www.w3.org/2000/svg">
<g clip-path="url(#clip0)">
<path d="M55.6281 52.2833L41.9613 38.6168C45.3584 34.5317 47.4051 29.286 47.4051 23.5703C47.4051 10.5736 36.8318 0 23.8356 0C10.8392 0 0.265884 10.5736 0.265884 23.5703C0.265884 36.5662 10.8392 47.1389 23.8356 47.1389C29.551 47.1389 34.797 45.0926 38.8821 41.6955L52.5492 55.3622C52.9742 55.7875 53.5315 56 54.0886 56C54.6457 56 55.2031 55.7875 55.6284 55.3622C56.4787 54.5119 56.4787 53.1336 55.6281 52.2833ZM4.62038 23.5703C4.62038 12.9747 13.2403 4.3545 23.8356 4.3545C34.4307 4.3545 43.0503 12.9747 43.0503 23.5703C43.0503 34.1651 34.4307 42.7844 23.8356 42.7844C13.2403 42.7844 4.62038 34.1651 4.62038 23.5703Z" fill="#2B2837"/>
</g>
<defs>
<clipPath id="clip0">
<rect width="56" height="56" fill="none" transform="translate(0.265884)"/>
</clipPath>
</defs>
</svg>
